<?xml version="1.0" encoding="UTF-8"?><svg id="b" xmlns="http://www.w3.org/2000/svg" viewBox="0 0 585.02 129.32"><defs><style>.d{fill:#f9020a;}</style></defs><g id="c"><polygon class="d" points="207.57 62.87 206.54 63.94 206.15 64.15 205.53 64.82 204.96 65.69 204.71 66.48 204.93 118.43 204.51 124.79 201.4 127.36 197.5 128.33 193.37 127.9 189.59 126.27 188.98 124.24 188.48 121.87 188.13 119.43 188 117.21 187.85 77.12 188.54 56.29 188.46 52.71 188.23 49.16 188.24 45.62 188.9 42.07 190.64 39.05 193.46 36.79 196.72 35.96 199.8 37.23 203.63 39.98 206.63 40.15 210.38 38.74 216.44 36.79 225.7 36.88 231.33 40.17 235.96 42.46 242.25 39.55 246.39 37.16 251.2 36.21 256.11 36.63 260.56 38.36 266.21 43.04 269.82 48.96 271.65 55.77 271.93 63.09 271.85 67.61 273.01 107.11 273.74 115.71 273.76 119.98 272.88 124.11 271.59 126.06 269.67 127.39 267.5 128.11 265.46 128.27 263.24 127.9 260.62 127.06 258.37 125.79 257.28 124.11 255.93 58.93 255.62 57.2 254.78 55.49 253.55 54.09 252.07 53.29 248.74 54.25 244.39 57.34 240.6 61.14 238.97 64.24 238.67 124.76 235.33 127.4 230.88 128.29 226.41 127.42 223.02 124.77 222.75 55.32 218.6 53.83 214.09 55.54 210.11 59.03 207.57 62.87 207.57 62.87"/><polygon class="d" points="518.77 63.03 516.68 125.33 512.61 126.73 508.7 127.26 504.84 126.89 500.89 125.57 501.02 41.52 503.94 38.69 507.87 37.84 512.01 38.54 515.54 40.39 517.88 41.24 520.37 40.76 522.88 39.58 525.3 38.33 529.04 37.29 533.35 37.17 537.53 38.01 540.83 39.84 543.33 41.87 545.81 43.09 548.47 43.14 551.51 41.64 556.52 38.83 562.16 37.26 567.94 37.35 573.31 39.5 578.18 44.13 581.18 49.89 582.66 56.36 582.95 63.11 582.92 67.65 585.02 110.47 584.82 117.16 584.1 123.71 581.69 126.42 577.14 127.07 572.62 125.97 570.3 123.44 569.41 117.54 569.09 114.72 568.96 112.06 568.7 59.08 568.26 57.12 567.17 55.23 565.72 53.75 564.21 53.02 559.97 54.02 555.66 57.15 552.31 60.73 550.96 63.11 550.71 123.08 549.68 125.34 547.24 126.62 544.33 127.16 541.92 127.2 539.55 126.81 537.63 125.89 536.34 124.33 535.87 122.01 535.76 56.71 535.22 55.21 533.94 53.79 532.38 52.75 531.05 52.4 530.02 52.69 528.87 53.29 527.7 54.06 521.48 58.99 520.58 59.84 519.78 60.84 519.16 61.93 518.77 63.03 518.77 63.03"/><polygon class="d" points="468.68 51.23 466.59 51.48 464.03 52.19 461.87 53.38 460.96 55.1 460.77 124.8 457.17 126.77 452.87 127.37 448.81 126.45 445.96 123.9 445.65 56.16 443.27 52.54 438.03 51.23 432.67 49.49 429.93 44.54 431.95 39.16 437.17 37.39 442.65 36.32 445.45 33.06 447.72 20.82 452.2 12.61 459.4 6.36 469.83 0 493.57 .17 496.62 .93 498.74 2.83 500.04 5.37 500.62 8.05 500.64 10.39 500.22 13.18 499.26 15.55 497.63 16.65 485.23 17.07 476.05 17.03 469.1 18.41 463.44 23.09 461.86 25.63 460.65 28.87 460.59 32.15 462.44 34.82 468.33 36.67 475.26 37.06 481.37 38.3 484.84 42.74 484.86 45.01 484.16 47.68 482.83 49.93 480.95 50.9 468.68 51.23 468.68 51.23"/><path class="d" d="M309.92,127.97l-4.97-.46-5.02-1.4-4.57-2.43-3.6-3.56-3.83-6.51-1.99-6.31-.49-6.89.65-8.23,1.58-5.97,3.08-5.56,4.28-4.66,5.18-3.28,1.82-.57,2.39-.47,2.45-.32,2-.12,37.97-.27,1.58-.78.94-1.84.46-2.2.15-1.86-.61-5-2.15-3.83-3.55-2.45-4.82-.88-28.93-.1-1.62-.39-1.74-.95-1.58-1.21-1.14-1.17-.67-1.55-.31-2.14.11-2.13.6-1.53,1.65-1.62,2.12-1.54,2.25-1.15,2.04-.44,27.83.24,10.38,2.08,8.26,5.6,5.3,8.46,1.48,10.65v2.93s.69,9.05.69,9.05l.48,38.71.3,2.6.47,2.77.08,2.71-.87,2.42-2.58,2.1-3.43.86-3.45-.37-2.65-1.58-2.31-2.55-.59-.57-1.07-.32-1.55.12-1.58.4-1.14.53-7.26,5.06-28.5-.12h0ZM328.74,112.05l5.52-1.92,5.24-2.47,4.91-3.03,4.55-3.6.99-2.02-.16-2.61-.85-2.62-1.11-2.03-1.46-1.51-2.07-1.38-2.4-1.03-2.44-.46-14.23-.31-14.05.34-4.17,1.19-2.99,2.7-1.81,3.64-.65,4.02.16,3.24.68,2.84,1.3,2.5,2.02,2.21,2.37,1.37,2.65.47,2.95-.06,3.24-.23,2.8.17,3.11.49,3.11.35,2.79-.27h0Z"/><polygon class="d" points="21 59.23 22.3 60.01 23.53 60.62 24.72 61.09 25.9 61.42 26.42 62.29 27.23 63.14 28.13 63.85 28.93 64.32 64 79.91 69.12 82.87 73.15 86.66 76.2 91.26 78.41 96.68 79.33 109.97 75.11 119.84 69.35 126 65.66 128.19 47.81 129.32 21.27 128.75 15.09 127.81 9.44 125.61 4.62 122.11 .94 117.28 0 114.02 .4 110.77 1.86 107.97 4.08 106.07 7.22 105.06 10.12 105.3 12.8 106.62 15.25 108.86 23.01 112.24 52.7 112.05 56.42 111.23 59.72 109.1 61.91 106.08 62.29 102.59 60.85 99.38 58.38 96.95 55.36 95.11 18.07 78.51 12.27 75.66 7.39 71.47 2.24 64.13 1.72 56.46 3.01 49.43 6.35 43.32 11.99 38.41 14.08 37.49 16.69 36.83 19.38 36.42 21.74 36.26 57.53 35.73 61.76 36.06 66.14 37.03 71.13 38.93 75.58 41.64 79.18 45.45 81.57 50.6 81.46 52.46 80.5 54.51 79.09 56.4 77.69 57.79 75.77 58.72 73.33 59.09 70.88 58.87 68.97 58.01 66.17 55.94 63.34 54.39 60.26 53.42 56.7 53.09 21.59 53.2 20.59 53.64 19.53 54.67 18.74 55.87 18.58 56.81 18.96 57.47 19.52 58.1 20.22 58.68 21 59.23 21 59.23"/><path class="d" d="M170.97,105.07l-10.06,13.93-10.72,6.66-13.07,1.81-17.11-.6-2.02-.3-4.6-1.17-2.25-.42-6.22-4.46-5.94-5.47-4.44-6.44-1.74-7.38.07-38.88,2.2-6.68,5.81-7.95,8.3-6.66,9.65-2.81,29.72-.1,9.11,4.81,6.21,5.11,4.42,6.67,3.73,9.52-.3,30.82-.75,10.01h0ZM144.34,111.2l3.26-2.23,3.18-2.46,2.87-2.66,2.32-2.84-.03-37.67-6.34-7.18-5.44-2.65-14.3-.54-6.19.14-5.72,1.6-5.02,3.08-4.07,4.6-.09,38.71,2.17,2.82,2.48,2.68,2.72,2.44,2.88,2.09,25.32.06h0Z"/></g></svg>